# xmcd CD database file
#
# Track frame offsets:
#	150
#	29359
#	62521
#	101491
#	121950
#	156724
#	185465
#	193116
#	209256
#	225703
#	250475
#	281674
#
# Disc length: 4051 seconds
#
# Revision: 1
# Processed by: cddbd v1.5.2PL0 Copyright (c) Steve Scherf et al.
# Submitted via: CDex 1.51
#
DISCID=b00fd10c
DTITLE=Glenn Ferris - XActimo!
DYEAR=1900
DGENRE=Jazz
TTITLE0=X Actimo
TTITLE1=Sabbath Prayer
TTITLE2=Flying
TTITLE3=Qui?
TTITLE4=In My Dream
TTITLE5=Bluezin The blue
TTITLE6=Soul Beautiful
TTITLE7=You Are beautiful
TTITLE8=Like That
TTITLE9=The Healing Song
TTITLE10=Golden Waves
TTITLE11=Istanblues
EXTD=
EXTT0=
EXTT1=
EXTT2=
EXTT3=
EXTT4=
EXTT5=
EXTT6=
EXTT7=
EXTT8=
EXTT9=
EXTT10=
EXTT11=
PLAYORDER=
